<?xml version="1.0" encoding="UTF-8" standalone="no"?>
<svg viewBox="0 0 40 40" version="1.1" xmlns="http://www.w3.org/2000/svg">
    <path style="fill:#A2A2A2;"
        d="m 20,22 c 3.866,0 7,-3.134 7,-7 0,-3.866 -3.134,-7 -7,-7 -3.866,0 -7,3.134 -7,7 0,3.866 3.134,7 7,7 z"
        id="path2" />
    <path style="fill:#A2A2A2;"
        d="M 20 0 A 20 20 0 0 0 0 20 A 20 20 0 0 0 20 40 A 20 20 0 0 0 40 20 A 20 20 0 0 0 20 0 z M 20 0.5 A 19.5 19.5 0 0 1 39.5 20 A 19.5 19.5 0 0 1 33.833984 33.671875 C 31.498685 28.096333 26.04486 24.467376 20 24.466797 C 13.955378 24.468497 8.5023891 28.098172 6.1679688 33.673828 A 19.5 19.5 0 0 1 0.5 20 A 19.5 19.5 0 0 1 20 0.5 z " />
</svg>