<svg xmlns="http://www.w3.org/2000/svg" aria-hidden="true" style="position:absolute;overflow:hidden" width="140"
  height="140">
  <symbol id="icon-logo" viewBox="0 0 140 32">
    <path
      d="M3.484 26.475c0-.238.051-.569.154-.993.102-.435.241-.771.415-1.009l1.214-1.738c.369-.528.697-.983.984-1.366.287-.383.574-.724.861-1.024 1.752-1.914 3.007-3.342 3.766-4.283.758-.952 1.137-1.614 1.137-1.986a.635.635 0 0 0-.338-.574c-.225-.145-.523-.217-.891-.217-.758 0-1.711.274-2.859.822-1.148.538-2.49 1.242-4.027 2.111-1.527.869-2.377 1.304-2.551 1.304-.277 0-.415-.202-.415-.605 0-.341.108-.828.323-1.459.164-.683.297-1.21.4-1.583.102-.383.272-.724.507-1.024.246-.3.646-.626 1.199-.978.564-.352 1.424-.833 2.582-1.443l.154.574c.963-.393 1.87-.693 2.721-.9.861-.207 1.593-.31 2.198-.31 1.189 0 2.029.207 2.521.621.502.404.753 1.288.753 2.654 0 .745-.108 1.366-.323 1.862s-.635 1.19-1.26 2.08c-1.424 2.09-2.495 3.538-3.212 4.345-2.08 2.4-3.12 3.802-3.12 4.206 0 .228.149.341.446.341.246 0 .594-.176 1.045-.528s.994-.859 1.629-1.521c.635-.662 1.517-1.609 2.644-2.84a87.833 87.833 0 0 0 3.028-3.445 78.823 78.823 0 0 0 2.044-2.561c.533-.714.815-1.097.845-1.148.553-.683 1.122-1.242 1.706-1.676.594-.445.974-.667 1.137-.667.123 0 .266.114.43.341s.302.497.415.807c.123.31.184.548.184.714 0 .052-.123.305-.369.76-.246.445-.512.91-.799 1.397-.287.476-.748 1.21-1.383 2.204-1.394 2.183-2.459 4.019-3.197 5.509-.738 1.479-1.107 2.452-1.107 2.918 0 .166.056.321.169.466.123.134.246.202.369.202.164 0 .461-.129.891-.388.43-.269.907-.652 1.43-1.148.687-.662 1.312-1.35 1.875-2.064s1.122-1.511 1.675-2.39c.553-.879 1.045-1.712 1.476-2.498s.866-1.614 1.306-2.483l-.261-.791a1.569 1.569 0 0 1-.061-.481c0-.155.302-.657.907-1.505.605-.859 1.004-1.288 1.199-1.288.215 0 .395.16.538.481.154.31.231.626.231.947 0 .352-.159 1.055-.476 2.111-.307 1.045-.794 2.312-1.46 3.802a34.788 34.788 0 0 1-2.444 4.547c-.84 1.345-1.742 2.498-2.705 3.461-.953.952-1.814 1.661-2.582 2.126s-1.337.698-1.706.698c-.42 0-.861-.186-1.322-.559-.379-.331-.651-.626-.815-.885-.154-.269-.256-.559-.307-.869s-.077-.672-.077-1.086c0-.879.241-1.909.722-3.088s1.199-2.649 2.152-4.407c-2.982 3.662-5.293 6.327-6.932 7.992-1.629 1.666-2.823 2.498-3.581 2.498-.502 0-.927-.3-1.276-.9-.348-.61-.523-1.34-.523-2.188zM34.624 24.07v1.04c-.676.621-1.219 1.035-1.629 1.241s-.999.29-1.768.248c-1.332 1.593-2.505 2.39-3.52 2.39-.574 0-1.096-.191-1.568-.574s-.851-.905-1.137-1.567c-.277-.662-.415-1.402-.415-2.219 0-.662.215-1.397.646-2.204a10.007 10.007 0 0 1 1.691-2.25 9.468 9.468 0 0 1 2.229-1.692c.789-.434 1.522-.652 2.198-.652.482 0 .861.078 1.137.233.277.145.415.352.415.621 0 .207-.118.445-.354.714.389.083.656.222.799.419.143.186.215.533.215 1.04 0 .497-.118 1.122-.354 1.878a9.143 9.143 0 0 1-.938 2.126l.277.279h.231c.174 0 .343-.041.507-.124.174-.093.328-.186.461-.279.133-.104.425-.326.876-.667zm-3.166-4.082c-.851.517-1.578.988-2.183 1.412a9.897 9.897 0 0 0-1.537 1.273c-.42.424-.702.854-.845 1.288-.256 1.159-.384 1.785-.384 1.878 0 .683.471 1.024 1.414 1.024.441 0 1.178-.383 2.213-1.148a4.142 4.142 0 0 1-.261-1.397c0-.652.133-1.314.4-1.986.266-.683.661-1.464 1.183-2.343z" />
    <path
      d="M34.44 25.296v-1.009c.553-.662.973-1.226 1.26-1.692-.328-.114-.569-.253-.722-.419-.143-.166-.215-.414-.215-.745 0-.372.154-.843.461-1.412s.687-1.102 1.137-1.598c.451-.497.861-.817 1.23-.962a.925.925 0 0 1 .415-.109c.205 0 .307.098.307.295 0 .176-.159.533-.476 1.071 2.111-.331 3.443-.497 3.996-.497.215 0 .364.021.446.062.174.093.318.31.43.652s.169.683.169 1.024c0 .217-.097.455-.292.714-.184.248-.507.616-.968 1.102-.543.59-.999 1.231-1.368 1.924s-.553 1.216-.553 1.567c0 .486.297.729.891.729.625 0 1.711-.641 3.258-1.924v1.04c-.85.9-1.552 1.609-2.106 2.126s-1.066.931-1.537 1.241c-.471.3-.891.45-1.26.45-.43 0-.789-.197-1.076-.59-.287-.403-.43-.983-.43-1.738 0-.445.113-.952.338-1.521s.553-1.185.984-1.847c.441-.672.932-1.34 1.476-2.002-.287.062-.61.129-.968.202-.359.062-.738.129-1.137.202s-.707.129-.922.171c-.635 1.283-1.558 2.447-2.767 3.492z" />
    <path
      d="M55.374 24.101v1.04c-1.148 1.355-2.111 2.385-2.89 3.088-.779.693-1.429 1.04-1.952 1.04-.502 0-.958-.15-1.368-.45-.4-.3-.763-.714-1.091-1.241-.318-.528-.697-1.262-1.137-2.204a57.845 57.845 0 0 0-1.414 1.831c-.42.559-.712.931-.876 1.117s-.313.279-.446.279c-.277 0-.477-.176-.599-.528-.123-.362-.184-.885-.184-1.567 0-.931.108-1.826.323-2.685.225-.869.543-1.712.953-2.53.42-.817.953-1.697 1.599-2.638a61.163 61.163 0 0 1 2.198-2.98c1.117-1.428 2.08-2.592 2.89-3.492.809-.91 1.511-1.593 2.106-2.049.605-.466 1.107-.698 1.506-.698.492 0 .738.222.738.667 0 .383-.907 1.764-2.721 4.144-1.814 2.369-4.457 5.607-7.931 9.715v1.335c2.326-2.514 4.196-4.381 5.61-5.602 1.424-1.221 2.526-1.831 3.305-1.831.318 0 .564.191.738.574.174.372.261.807.261 1.304 0 1.014-.43 1.955-1.291 2.824-.861.859-2.183 1.847-3.966 2.964.307.466.579.807.815 1.024.236.207.533.31.891.31.318 0 .661-.109 1.03-.326s.743-.491 1.122-.822c.389-.331.984-.869 1.783-1.614zm-6.071.791c.389-.259.871-.657 1.445-1.195a11.194 11.194 0 0 0 1.491-1.692c.41-.59.615-1.081.615-1.474 0-.166-.072-.248-.215-.248-.389 0-1.061.378-2.014 1.133-.943.755-1.865 1.723-2.767 2.902.389 0 .871.191 1.445.574zM101.221 30.774c-.122 0-.307-.067-.553-.202a13.591 13.591 0 0 1-1.046-.698c-.451-.321-.963-.678-1.537-1.071L89.77 23.17l-2.46 3.274c0 .279-.035.491-.107.636-.072.134-.225.326-.461.574-.563.59-1.045 1.04-1.445 1.35-.39.31-.743.466-1.061.466a.505.505 0 0 1-.399-.202.665.665 0 0 1-.169-.466c0-.248.143-.579.431-.993l4.503-5.649c-.266-.424-.399-.859-.399-1.304 0-.455.123-.843.369-1.164.256-.321.548-.579.877-.776s1.235-.693 2.72-1.49c2.111-2.824 3.167-4.407 3.167-4.749 0-.228-.134-.341-.399-.341-.277 0-.892.165-1.845.497-.943.331-2.188.843-3.735 1.536-1.537.683-3.361 1.562-5.472 2.638a1.141 1.141 0 0 1-.599.124.878.878 0 0 1-.554-.264c-.154-.166-.23-.383-.23-.652 0-.083.02-.181.061-.295.031-.114.087-.29.169-.528l.215-.652c.021-.062.067-.285.138-.667a3.44 3.44 0 0 1 .4-1.04c.184-.321.497-.672.938-1.055.451-.383 1.091-.786 1.921-1.21.154-.093.298-.15.431-.171.134-.031.2.005.2.109 0 .031-.154.16-.461.388-.297.217-.625.579-.984 1.086 2.993-1.055 5.195-1.795 6.609-2.219 1.425-.434 2.567-.652 3.427-.652.472 0 .866.326 1.184.978.317.641.477 1.06.477 1.257 0 .29-.113.616-.338.978l-2.46 3.724a228.025 228.025 0 0 0 4.534-2.312c1.087-.579 2.265-1.205 3.535-1.878a103.446 103.446 0 0 1 2.413-1.273c.338-.176.559-.264.661-.264.236 0 .353.109.353.326 0 .124-.179.466-.538 1.024a9.409 9.409 0 0 1-1.168 1.49c-.431.434-.789.652-1.076.652a.892.892 0 0 1-.261-.047 5.859 5.859 0 0 0-.292-.109c-1.384.724-3.08 1.583-5.088 2.576a485.234 485.234 0 0 1-4.734 2.328l-1.322 2.002 7.793 5.338c.717.486 1.235.874 1.553 1.164.328.29.568.605.722.947.164.341.246.771.246 1.288 0 .848-.179 1.273-.538 1.273z" />
    <path
      d="M104.833 21.323c1.558-1.428 3.069-2.488 4.534-3.181s2.598-1.04 3.397-1.04c.215 0 .415.093.599.279.184.176.328.383.431.621.113.238.169.414.169.528a.467.467 0 0 1-.215.419c-.144.083-.394.186-.753.31l.277.636c.113.258.2.471.261.636.062.155.093.295.093.419 0 .248-.251.714-.753 1.397-.492.672-.84 1.169-1.045 1.49-.195.321-.292.714-.292 1.179 0 .766.349 1.148 1.045 1.148.718 0 1.839-.678 3.366-2.033v.947c-2.592 2.907-4.447 4.361-5.564 4.361-.4 0-.687-.135-.861-.404-.164-.259-.246-.647-.246-1.164 0-.817.292-2.002.876-3.554-1.496 1.676-2.607 2.871-3.335 3.585-.728.704-1.327 1.055-1.798 1.055-.225 0-.507-.197-.845-.59s-.641-.9-.907-1.521a5.155 5.155 0 0 1-.384-1.955c0-.486.046-.89.138-1.21.093-.331.272-.667.538-1.009s.691-.791 1.276-1.35zm7.362-1.707c-2.664 1.231-4.565 2.276-5.702 3.135-1.127.859-1.691 1.743-1.691 2.654 0 .331.056.605.169.822.113.207.266.31.461.31.113 0 .313-.072.6-.217 1.076-.641 2.06-1.474 2.951-2.498.892-1.035 1.962-2.436 3.213-4.206z" />
    <path
      d="m117.821 24.132-.277 1.304a2.335 2.335 0 0 0-.061.559c0 .559.23.838.691.838.44 0 1.512-.869 3.213-2.607.01-.672.256-1.448.737-2.328.492-.879 1.03-1.65 1.614-2.312.595-.662 1.035-.993 1.322-.993.451 0 .677.3.677.9 0 .362-.088.807-.262 1.335a10.41 10.41 0 0 1-.769 1.692c-.338.6-.753 1.221-1.245 1.862.256.466.518.698.783.698.226 0 .472-.078.738-.233.277-.166.62-.414 1.03-.745v1.04c-.573.455-1.03.766-1.368.931-.328.166-.753.248-1.276.248-.205 0-.574-.14-1.107-.419-1.045 1.117-1.896 1.955-2.551 2.514-.656.548-1.189.823-1.599.823-.707 0-1.312-.424-1.814-1.273a5.581 5.581 0 0 1-.737-2.824c0-1.376.769-3.026 2.305-4.951.461-.579.83-.972 1.107-1.179.287-.217.609-.326.968-.326.307 0 .6.057.876.171s.415.248.415.404c0 .517-.344 1.278-1.03 2.281a12.475 12.475 0 0 1-2.383 2.592z" />
    <path
      d="M127.781 21.323c1.558-1.428 3.069-2.488 4.534-3.181s2.598-1.04 3.397-1.04c.215 0 .415.093.6.279.184.176.328.383.43.621.113.238.17.414.17.528a.466.466 0 0 1-.216.419c-.143.083-.394.186-.753.31l.276.636c.113.258.2.471.262.636.061.155.093.295.093.419 0 .248-.251.714-.753 1.397-.492.672-.84 1.169-1.045 1.49-.195.321-.292.714-.292 1.179 0 .766.349 1.148 1.045 1.148.717 0 1.839-.678 3.366-2.033v.947c-2.593 2.907-4.447 4.361-5.564 4.361-.4 0-.687-.135-.861-.404-.163-.259-.246-.647-.246-1.164 0-.817.292-2.002.876-3.554-1.496 1.676-2.608 2.871-3.335 3.585-.728.704-1.327 1.055-1.798 1.055-.226 0-.508-.197-.846-.59s-.64-.9-.906-1.521a5.137 5.137 0 0 1-.385-1.955c0-.486.047-.89.138-1.21.093-.331.271-.667.538-1.009s.692-.791 1.276-1.35zm7.363-1.707c-2.664 1.231-4.566 2.276-5.703 3.135-1.127.859-1.69 1.743-1.69 2.654 0 .331.056.605.169.822.113.207.266.31.461.31.113 0 .312-.072.6-.217 1.075-.641 2.059-1.474 2.951-2.498.891-1.035 1.962-2.436 3.213-4.206zM71.008 8.847l-.115.852c1.668.229 2.998.665 3.798 1.159.4.247.661.509.785.732s.141.39.058.609c-.167.438-.911 1.017-2.111 1.433s-2.811.693-4.593.744c-1.781.052-3.495-.128-4.873-.474s-2.415-.883-2.835-1.39c-.21-.254-.259-.446-.234-.637s.142-.416.411-.664c.539-.496 1.652-1.008 3.195-1.328l-.171-.842c-1.632.339-2.86.853-3.6 1.534-.37.341-.625.739-.682 1.19s.104.912.426 1.301c.644.777 1.813 1.304 3.283 1.673s3.25.555 5.104.501c1.854-.054 3.533-.34 4.842-.793s2.294-1.049 2.634-1.94c.17-.446.115-.938-.113-1.344s-.603-.742-1.085-1.039c-.963-.595-2.378-1.036-4.127-1.276z" />
    <path
      d="M63.215 10.584c-.402.148-.717.311-.959.517s-.429.493-.414.824c.015.331.216.598.469.796s.58.356.993.501c1.651.581 4.361.794 6.867.578 1.254-.108 2.309-.314 3.085-.593.388-.14.708-.295.959-.495s.46-.477.46-.824h-.853c0-.01.003.039-.134.148s-.386.243-.719.363c-.666.24-1.667.441-2.869.544-2.403.207-5.09-.03-6.517-.532-.357-.126-.61-.26-.749-.369s-.141-.167-.14-.157c.001.01-.013-.022.11-.126s.36-.239.703-.366l-.292-.809z" />
    <path
      d="M60.079 11.872c2.227 3.399 12.785 3.878 16.353.149-.342 5.669-.634 16.411-1.608 16.763-4.517 1.64-7.99 2.278-12.937.014-1.305-.591-1.45-11.083-1.846-16.753l.037-.174zM66.589.941l-.679.52c.534.714.708 1.379.673 2.069s-.298 1.417-.707 2.168l.024-.04c-.781 1.122-.856 2.175-.688 3.084s.52 1.694.612 2.457l.847-.105c-.114-.939-.48-1.74-.621-2.509s-.112-1.483.548-2.432l.012-.018.012-.022c.445-.817.768-1.66.813-2.537s-.208-1.781-.847-2.635zM68.596.941l-.679.52c.534.714.708 1.379.673 2.069s-.298 1.417-.707 2.168l.024-.04c-.781 1.122-.856 2.175-.688 3.084s.52 1.694.612 2.457l.847-.105c-.114-.939-.48-1.74-.621-2.509s-.112-1.483.548-2.432l.012-.018.012-.022c.445-.817.768-1.66.813-2.537s-.208-1.781-.847-2.635zM70.603.941l-.679.52c.534.714.708 1.379.673 2.069s-.298 1.417-.707 2.168l.024-.04c-.78 1.122-.855 2.175-.688 3.084s.52 1.694.612 2.457l.849-.105c-.113-.939-.483-1.74-.624-2.509s-.112-1.483.548-2.432l.015-.018.009-.022c.445-.817.769-1.66.813-2.537s-.208-1.781-.847-2.635z" />
    <path
      d="M77.458 14.609c-.514-.145-1.096-.157-1.635.095s-.982.763-1.23 1.448l1.318.489c.15-.415.325-.57.499-.652s.401-.094.67-.018c.535.151 1.103.728 1.203 1.085.466 2.165-.02 3.209-.606 4.437-.593 1.019-1.147 1.225-1.846 1.454-.687.226-1.057.911-.984 1.574s.689 1.287 1.51 1.384l.161-1.408c-.346-.041-.273-.094-.277-.129s.017-.071.024-.074c.783-.257 1.853-.742 2.634-2.097l.015-.025.013-.025c.609-1.275 1.279-2.885.725-5.424l-.003-.015-.003-.015c-.276-1.036-1.161-1.794-2.19-2.085z" />
  </symbol>
  <symbol id="icon-burger" viewBox="0 0 32 32">
    <path
      d="M 4,14.75 A 1.25,1.25 0 0 0 2.75,16 1.25,1.25 0 0 0 4,17.25 H 28 A 1.25,1.25 0 0 0 29.25,16 1.25,1.25 0 0 0 28,14.75 Z" />
    <path
      d="M 4,6.75 A 1.25,1.25 0 0 0 2.75,8 1.25,1.25 0 0 0 4,9.25 H 28 A 1.25,1.25 0 0 0 29.25,8 1.25,1.25 0 0 0 28,6.75 Z" />
    <path
      d="M 4,22.75 A 1.25,1.25 0 0 0 2.75,24 1.25,1.25 0 0 0 4,25.25 H 28 A 1.25,1.25 0 0 0 29.25,24 1.25,1.25 0 0 0 28,22.75 Z" />
  </symbol>
  <symbol id="icon-close" viewBox="0 0 32 32">
    <path
      d="M 4 2.75 A 1.25 1.25 0 0 0 3.1152344 3.1152344 A 1.25 1.25 0 0 0 3.1152344 4.8847656 L 14.230469 16 L 3.1152344 27.115234 A 1.25 1.25 0 0 0 3.1152344 28.884766 A 1.25 1.25 0 0 0 4.8847656 28.884766 L 16 17.769531 L 27.115234 28.884766 A 1.25 1.25 0 0 0 28.884766 28.884766 A 1.25 1.25 0 0 0 28.884766 27.115234 L 17.769531 16 L 28.884766 4.8847656 A 1.25 1.25 0 0 0 28.884766 3.1152344 A 1.25 1.25 0 0 0 28 2.75 A 1.25 1.25 0 0 0 27.115234 3.1152344 L 16 14.230469 L 4.8847656 3.1152344 A 1.25 1.25 0 0 0 4 2.75 z " />
  </symbol>
  <symbol id="icon-eye-allow" viewBox="0 0 32 32">
    <path
      d="M16 6c-6.979 0-13.028 4.064-16 10 2.972 5.936 9.021 10 16 10s13.027-4.064 16-10c-2.972-5.936-9.021-10-16-10zM23.889 11.303c1.88 1.199 3.473 2.805 4.67 4.697-1.197 1.891-2.79 3.498-4.67 4.697-2.362 1.507-5.090 2.303-7.889 2.303s-5.527-0.796-7.889-2.303c-1.88-1.199-3.473-2.805-4.67-4.697 1.197-1.891 2.79-3.498 4.67-4.697 0.122-0.078 0.246-0.154 0.371-0.228-0.311 0.854-0.482 1.776-0.482 2.737 0 4.418 3.582 8 8 8s8-3.582 8-8c0-0.962-0.17-1.883-0.482-2.737 0.124 0.074 0.248 0.15 0.371 0.228v0zM16 13c0 1.657-1.343 3-3 3s-3-1.343-3-3 1.343-3 3-3 3 1.343 3 3z">
    </path>
  </symbol>
  <symbol id="icon-eye-denied" viewBox="0 0 32 32">
    <path
      d="M29.561 0.439c-0.586-0.586-1.535-0.586-2.121 0l-6.318 6.318c-1.623-0.492-3.342-0.757-5.122-0.757-6.979 0-13.028 4.064-16 10 1.285 2.566 3.145 4.782 5.407 6.472l-4.968 4.968c-0.586 0.586-0.586 1.535 0 2.121 0.293 0.293 0.677 0.439 1.061 0.439s0.768-0.146 1.061-0.439l27-27c0.586-0.586 0.586-1.536 0-2.121zM13 10c1.32 0 2.44 0.853 2.841 2.037l-3.804 3.804c-1.184-0.401-2.037-1.521-2.037-2.841 0-1.657 1.343-3 3-3zM3.441 16c1.197-1.891 2.79-3.498 4.67-4.697 0.122-0.078 0.246-0.154 0.371-0.228-0.311 0.854-0.482 1.776-0.482 2.737 0 1.715 0.54 3.304 1.459 4.607l-1.904 1.904c-1.639-1.151-3.038-2.621-4.114-4.323z">
    </path>
    <path
      d="M24 13.813c0-0.849-0.133-1.667-0.378-2.434l-10.056 10.056c0.768 0.245 1.586 0.378 2.435 0.378 4.418 0 8-3.582 8-8z">
    </path>
    <path
      d="M25.938 9.062l-2.168 2.168c0.040 0.025 0.079 0.049 0.118 0.074 1.88 1.199 3.473 2.805 4.67 4.697-1.197 1.891-2.79 3.498-4.67 4.697-2.362 1.507-5.090 2.303-7.889 2.303-1.208 0-2.403-0.149-3.561-0.439l-2.403 2.403c1.866 0.671 3.873 1.036 5.964 1.036 6.978 0 13.027-4.064 16-10-1.407-2.81-3.504-5.2-6.062-6.938z">
    </path>
  </symbol>
  <symbol id="icon-arrow" viewBox="0 0 32 32">
    <path
      d="m2.026 8.294-1.999 2L16 26.267l15.974-15.973-4.027-4.027-11.946 11.947-5.96-5.96c-3.278-3.279-5.973-5.96-5.987-5.96s-.926.899-2.026 2z" />
  </symbol>
  <symbol id="icon-fourZigzags" viewBox="0 0 32 32">
    <path
      d="M11.285 2.088 6.57 6.793 2.564 2.787 1.147 4.204 6.57 9.627l4.715-4.715L16 9.627l4.715-4.715 4.715 4.715 5.423-5.423-1.417-1.417-4.006 4.006-4.715-4.705L16 6.793l-4.715-4.705z" />
    <path
      d="M11.285 8.849 6.57 13.564 2.564 9.548l-1.417 1.417 5.423 5.423 4.715-4.715L16 16.388l4.715-4.715 4.715 4.715 5.423-5.423-1.417-1.417-4.006 4.006-4.715-4.705L16 13.564l-4.715-4.715z" />
    <path
      d="M11.285 15.611 6.57 20.326 2.564 16.31l-1.417 1.417L6.57 23.15l4.715-4.715L16 23.15l4.715-4.715 4.715 4.715 5.423-5.423-1.417-1.417-4.006 4.006-4.715-4.705L16 20.316l-4.715-4.705z" />
    <path
      d="M11.285 22.373 6.57 27.078l-4.006-4.006-1.417 1.417 5.423 5.423 4.715-4.715L16 29.912l4.715-4.715 4.715 4.715 5.423-5.423-1.417-1.417-4.006 4.006-4.715-4.705L16 27.078l-4.715-4.705z" />
  </symbol>
  <symbol id="icon-largeCoffee" viewBox="0 0 41 32">
    <path
      d="M17.53 16.043c0 8.769-.824 12.079-6.591 14.438-1.716.702.437-2.976-1.812-7.797-.466-.999-4.151-12.03-4.151-13.03 0-6.859 2.096-6.835 1.877-8.831-.105-.952 1.288-.202 1.926.136 5.384 2.852 8.752 6.315 8.752 15.084z" />
    <path
      d="M3.112 7.442c-.313 6.383 2.355 9.896 3.295 13.398 1.81 6.742 2.731 10.785-1.414 10.785-6.231 0-11.282-7.109-11.282-15.878S-2.526 1.482 3.534.035C4.385-.168 5 .546 4.993 1.349c-.012 1.241-1.646 1.334-1.88 6.093zM36.413 33.695c-5.237 7.034-7.875 9.196-13.909 7.644-1.795-.462 2.128-2.126 3.203-7.336.223-1.079 3.854-12.128 4.452-12.931 4.096-5.501 5.763-4.231 6.779-5.962.485-.826 1.154.607 1.464 1.259 2.615 5.503 3.249 10.292-1.989 17.326z" />
    <path
      d="M29.985 18.186c-4.063 4.932-4.021 9.344-5.359 12.714-2.575 6.489-4.25 10.281-7.575 7.806-4.998-3.721-4.804-12.44.433-19.473s11.537-9.195 17.262-6.736c.804.345.871 1.285.385 1.925-.75.988-2.117.086-5.147 3.764z" />
  </symbol>
  <symbol id="icon-phone" viewBox="0 0 32 32">
    <path
      d="M23 0H9C7.35 0 6 1.35 6 3v26c0 1.65 1.35 3 3 3h14c1.65 0 3-1.35 3-3V3c0-1.65-1.35-3-3-3zM12 1.5h8v1h-8v-1zM16 30a2 2 0 1 1-.001-3.999A2 2 0 0 1 16 30zm8-6H8V4h16v20z" />
  </symbol>
  <symbol id="icon-points" viewBox="0 0 32 32">
    <path
      d="M30.222 28.445a1.778 1.778 0 1 0 0 3.556 1.778 1.778 0 0 0 0-3.556zM30.222 21.333a1.778 1.778 0 1 0 0 3.556 1.778 1.778 0 0 0 0-3.556zM30.222 14.222a1.778 1.778 0 1 0 0 3.556 1.778 1.778 0 0 0 0-3.556zM30.222 7.111a1.778 1.778 0 1 0 0 3.556 1.778 1.778 0 0 0 0-3.556zM30.222 0a1.778 1.778 0 1 0 0 3.556 1.778 1.778 0 0 0 0-3.556zM23.111 28.8a1.422 1.422 0 1 0 0 2.845 1.422 1.422 0 0 0 0-2.845zM23.111 21.689a1.422 1.422 0 1 0 0 2.845 1.422 1.422 0 0 0 0-2.845zM23.111 14.578a1.422 1.422 0 1 0 0 2.845 1.422 1.422 0 0 0 0-2.845zM23.111 7.467a1.422 1.422 0 1 0 0 2.845 1.422 1.422 0 0 0 0-2.845zM23.111.356a1.422 1.422 0 1 0 0 2.845 1.422 1.422 0 0 0 0-2.845zM16 29.155a1.067 1.067 0 1 0 0 2.135 1.067 1.067 0 0 0 0-2.135zM16 22.044a1.067 1.067 0 1 0 0 2.133 1.067 1.067 0 0 0 0-2.133zM16 14.933a1.067 1.067 0 1 0 0 2.135 1.067 1.067 0 0 0 0-2.135zM16 7.822a1.067 1.067 0 1 0 0 2.135 1.067 1.067 0 0 0 0-2.135zM16 .711a1.067 1.067 0 1 0 0 2.135A1.067 1.067 0 0 0 16 .71zM8.889 29.511a.71.71 0 1 0 0 1.421.71.71 0 0 0 0-1.421zM8.889 22.4a.71.71 0 1 0 0 1.421.71.71 0 0 0 0-1.421zM8.889 15.289a.71.71 0 1 0 0 1.421.71.71 0 0 0 0-1.421zM8.889 8.178a.71.71 0 1 0 0 1.421.71.71 0 0 0 0-1.421zM8.889 1.067a.71.71 0 1 0 0 1.421.71.71 0 0 0 0-1.421zM1.778 29.867a.356.356 0 1 0 0 .712.356.356 0 0 0 0-.712zM1.778 22.756a.356.356 0 1 0 0 .712.356.356 0 0 0 0-.712zM1.778 15.644a.356.356 0 1 0 0 .712.356.356 0 0 0 0-.712zM1.778 8.533a.356.356 0 1 0 0 .712.356.356 0 0 0 0-.712zM1.778 1.422a.356.356 0 1 0 0 .712.356.356 0 0 0 0-.712z" />
  </symbol>
  <symbol id="icon-pointsInvert" viewBox="0 0 32 32">
    <path
      d="M1.778 3.556a1.778 1.778 0 1 0 0-3.556 1.778 1.778 0 0 0 0 3.556zM1.778 10.667a1.778 1.778 0 1 0 0-3.556 1.778 1.778 0 0 0 0 3.556zM1.778 17.778a1.778 1.778 0 1 0 0-3.556 1.778 1.778 0 0 0 0 3.556zM1.778 24.889a1.778 1.778 0 1 0 0-3.556 1.778 1.778 0 0 0 0 3.556zM1.778 32a1.778 1.778 0 1 0 0-3.556 1.778 1.778 0 0 0 0 3.556zM8.889 3.2a1.422 1.422 0 1 0 0-2.845 1.422 1.422 0 0 0 0 2.845zM8.889 10.311a1.422 1.422 0 1 0 0-2.845 1.422 1.422 0 0 0 0 2.845zM8.889 17.422a1.422 1.422 0 1 0 0-2.845 1.422 1.422 0 0 0 0 2.845zM8.889 24.533a1.422 1.422 0 1 0 0-2.845 1.422 1.422 0 0 0 0 2.845zM8.889 31.645a1.422 1.422 0 1 0 0-2.845 1.422 1.422 0 0 0 0 2.845zM16 2.844a1.067 1.067 0 1 0 0-2.135 1.067 1.067 0 0 0 0 2.135zM16 9.956a1.067 1.067 0 1 0 0-2.135 1.067 1.067 0 0 0 0 2.135zM16 17.067a1.067 1.067 0 1 0 0-2.133 1.067 1.067 0 0 0 0 2.133zM16 24.178a1.067 1.067 0 1 0 0-2.133 1.067 1.067 0 0 0 0 2.133zM16 31.289a1.067 1.067 0 1 0 0-2.135 1.067 1.067 0 0 0 0 2.135zM23.111 2.489a.71.71 0 1 0 0-1.421.71.71 0 0 0 0 1.421zM23.111 9.6a.71.71 0 1 0 0-1.421.71.71 0 0 0 0 1.421zM23.111 16.711a.71.71 0 1 0 0-1.421.71.71 0 0 0 0 1.421zM23.111 23.822a.71.71 0 1 0 0-1.421.71.71 0 0 0 0 1.421zM23.111 30.933a.71.71 0 1 0 0-1.421.71.71 0 0 0 0 1.421zM30.222 2.133a.355.355 0 1 0 0-.71.355.355 0 0 0 0 .71zM30.222 9.244a.355.355 0 1 0 0-.71.355.355 0 0 0 0 .71zM30.222 16.356a.355.355 0 1 0 0-.71.355.355 0 0 0 0 .71zM30.222 23.467a.355.355 0 1 0 0-.71.355.355 0 0 0 0 .71zM30.222 30.578a.355.355 0 1 0 0-.71.355.355 0 0 0 0 .71z" />
  </symbol>
  <symbol id="icon-potato" viewBox="0 0 36 32">
    <path
      d="m16.376.316-1.582 1.265c-.218.27-.301.588-.229.957l.778 5.704-2.163-3.208c-.195-.193-.454-.321-.786-.38-.568-.121-1.12-.172-1.642-.097l-.629.173L8.43 5.941c-.438.379-.626.824-.384 1.383l1.24 1.734a.616.616 0 0 0-.087.065L6.85 11.144c-.148.169-.266.346-.315.529a91.447 91.447 0 0 0-2.22-2.299.79.79 0 0 0-.477-.206c-.805-.097-1.697.244-2.243.795L.401 11.169c-.342.387-.524.824-.072 1.254.196.186.412.348.605.524 1.907 1.74 3.435 3.322 4.705 5.061a.932.932 0 0 0-.275.137c-.307.225-.419.611-.273.938.503 1.121 1.174 3.238 1.97 5.749 2.555 8.057 6.351 20.028 11.326 18.938l18.892-4.448c.822-.576 1.044-2.193.855-4.523a3866.41 3866.41 0 0 0-2.35-19.323c-.031-.248-.976 6.286-10.691 10.177-3.495 1.4-10.629 2.199-15.931-.105-.024-.011.125-.171.414-.109 10.363 2.205 14.58-.909 15.507-.876 7.185-2.658 10.961-9.338 10.531-9.766 0 0-.272-2.324-.276-2.531-.011-.436-.399-.77-.866-.745a.895.895 0 0 0-.369.099c.026-2.656.407-4.809 1.698-8.02.097-.243.222-.482.317-.735.22-.583-.133-.898-.608-1.099l-1.599-.568c-.731-.26-1.683-.179-2.366.257-.161.103-.284.232-.339.392a40.055 40.055 0 0 0-.936 3.124c-.117-.189-.332-.324-.58-.429l-2.992-.802a.863.863 0 0 0-.099-.019l.353-2.024c.031-.708-.226-.959-.755-1.115L24.201.209c-.333-.034-.654-.013-.951.103-.28.151-.58.326-.923.51-.249.134-.408.212-.623.402a1.358 1.358 0 0 0-.398.549l-.119.835c-.147 1.022-.261 1.772-.284 2.63L20.393.98c.006-.503-.212-.784-.576-.923l-3.438.258zm-1.092 1.816 3.15-.245c.234 6.639 1.933 14.899 3.825 21.352.045.154-.715-10.515-.759-16.773-.02-2.75.63-4.387.65-4.321.013.042 2.846.468 2.846.468-1.886 3.529-.423 17.076-.097 18.861l-2.622 1.82.402 1.336-2.219.556c-.316-.719-.609-1.374-.883-1.969l-.023-.049a79.016 79.016 0 0 0-1.586-3.183l-.005-.022-.105-.187c-.036-.162-8.657-12.61-8.8-12.709-.499-.348 2.339-1.858 2.875-1.511 1.084.703 3.227 3.66 3.227 3.66s1.117 5.586 1.766 8.098c.602 2.327.74 1.597.732 1.558-1.231-5.616-2.423-12.489-2.373-16.74zM3.461 10.118c4.188 3.813 7.906 7.862 10.17 13.228l-3.285-.323c-1.633-4.118-4.554-8.008-8.472-11.355l1.587-1.55zm6.723-.159c4.187 3.813 6.51 8.93 9.225 14.559l-3.455-.078c-2.007-4.398-3.74-7.991-7.889-12.561l2.119-1.92zm19.674-3.267c-.426 1.912-.885 3.961-1.191 5.985-.344 2.272-.522 4.487-.19 6.499.104.63 2.923-15.815 3.18-17.068.008-.04 3.283 1.062 3.283 1.062-.565 1.391-1.55 5.436-1.815 8.658-.09 1.088-2.901 6.858-2.901 6.858l-1.844.785-.324.721s-2.447 1.177-2.476.978c-.344-2.365-.838-15.693.542-15.802l3.737 1.323z" />
  </symbol>
  <symbol id="icon-smallCoffee" viewBox="0 0 49 32">
    <path
      d="M29.549 17.002c0-8.198.771-11.293 6.162-13.498 1.604-.656-.409 2.782 1.694 7.289.436.934 3.881 11.246 3.881 12.182 0 6.412-1.96 6.39-1.755 8.255.098.89-1.204.189-1.801-.127-5.034-2.666-8.182-5.904-8.182-14.102z" />
    <path
      d="M43.029 25.042c.293-5.967-2.201-9.252-3.08-12.526-1.692-6.303-2.553-10.082 1.322-10.082 5.825 0 10.547 6.646 10.547 14.844s-3.517 13.336-9.183 14.689c-.795.19-1.371-.477-1.364-1.229.011-1.16 1.539-1.247 1.758-5.696zM11.896.499c4.896-6.576 7.362-8.597 13.004-7.146 1.678.432-1.989 1.987-2.994 6.858-.208 1.009-3.603 11.338-4.162 12.089-3.829 5.143-5.388 3.955-6.338 5.574-.453.772-1.079-.567-1.368-1.177C7.593 11.552 7.001 7.075 11.897.5z" />
    <path
      d="M17.906 14.998c3.799-4.611 3.76-8.735 5.01-11.886 2.407-6.066 3.973-9.612 7.082-7.297 4.672 3.479 4.491 11.63-.405 18.205s-10.786 8.596-16.138 6.297c-.751-.323-.814-1.202-.36-1.8.701-.924 1.979-.081 4.812-3.519z" />
  </symbol>
  <symbol id="icon-twoZigzags" viewBox="0 0 59 32">
    <path
      d="m20.801 3.848-8.69 8.671-7.383-7.383-2.612 2.612 9.996 9.996 8.69-8.69 8.69 8.69 8.69-8.69 8.69 8.69 9.996-9.996-2.612-2.612-7.384 7.383-8.69-8.671-8.69 8.671-8.69-8.671z" />
    <path
      d="m20.801 16.311-8.69 8.69-7.383-7.402-2.612 2.612 9.996 9.996 8.69-8.69 8.69 8.69 8.69-8.69 8.69 8.69 9.996-9.996-2.612-2.612-7.384 7.383-8.69-8.671-8.69 8.69-8.69-8.69z" />
  </symbol>
  <symbol id="icon-user" viewBox="0 0 32 32">
    <path
      d="M16 16c4.42 0 8-3.58 8-8s-3.58-8-8-8-8 3.58-8 8 3.58 8 8 8zm0 4c-5.34 0-16 2.68-16 8v2c0 1.1.9 2 2 2h28c1.1 0 2-.9 2-2v-2c0-5.32-10.66-8-16-8z" />
  </symbol>
  <symbol id="icon-avatar" viewBox="0 0 36 36">
    <path
      d="m 18,20.290796 c 3.4794,0 6.3,-2.8206 6.3,-6.3 0,-3.4794 -2.8206,-6.2999984 -6.3,-6.2999984 -3.4794,0 -6.3,2.8205984 -6.3,6.2999984 0,3.4794 2.8206,6.3 6.3,6.3 z" />
    <path
      d="M 18,22.597656 A 13.462464,13.462464 0 0 0 4.5429688,36 H 31.460938 A 13.462464,13.462464 0 0 0 18,22.597656 Z" />
  </symbol>
  <symbol id="icon-cart" viewBox="0 0 32 32">
    <path
      d="M 10,0 C 4.4773028,0 0,4.4773028 0,10 v 12 c 0,5.522697 4.4773028,10 10,10 h 12 c 5.522697,0 10,-4.477303 10,-10 V 10 C 32,4.4773028 27.522697,0 22,0 Z m 0,2 h 12 c 4.449293,0 8,3.5507072 8,8 v 12 c 0,4.449293 -3.550707,8 -8,8 H 10 C 5.5507072,30 2,26.449293 2,22 V 10 C 2,5.5507072 5.5507072,2 10,2 Z" />
    <path
      d="M12.9694 20.5361C11.9742 20.5361 11.1547 21.3557 11.1547 22.3509C11.1547 23.3462 11.9742 24.1657 12.9694 24.1657C13.9646 24.1657 14.7858 23.3462 14.7858 22.3509C14.7858 21.3557 13.9647 20.5361 12.9694 20.5361ZM12.9694 21.7861C13.2891 21.7861 13.5358 22.0313 13.5358 22.3509C13.5358 22.6707 13.2892 22.9157 12.9694 22.9157C12.6497 22.9157 12.4047 22.6707 12.4047 22.3509C12.4047 22.0313 12.6498 21.7861 12.9694 21.7861Z" />
    <path
      d="M19.4766 20.5361C18.4813 20.5361 17.6602 21.3557 17.6602 22.3509C17.6602 23.3462 18.4814 24.1657 19.4766 24.1657C20.4718 24.1657 21.2913 23.3461 21.2913 22.3509C21.2913 21.3557 20.4718 20.5361 19.4766 20.5361ZM19.4766 21.7861C19.7963 21.7861 20.0413 22.0313 20.0413 22.3509C20.0413 22.6707 19.7963 22.9157 19.4766 22.9157C19.1569 22.9157 18.9102 22.6706 18.9102 22.3509C18.9102 22.0313 19.157 21.7861 19.4766 21.7861Z" />
    <path
      d="M24.3284 10.7007L12.0514 10.7023C11.7062 10.7024 11.4264 10.9821 11.4264 11.3273C11.4264 11.6725 11.7062 11.9523 12.0514 11.9523L23.36 11.9507L22.3948 15.5119C22.1878 16.2781 21.497 16.8123 20.7005 16.8123H13.3323C12.9871 16.8123 12.7073 17.0922 12.7073 17.4373C12.7073 17.7825 12.9871 18.0623 13.3323 18.0623H20.7005C22.0587 18.0623 23.2483 17.1441 23.6009 15.839L24.7809 11.4884C24.8559 11.1213 24.7454 10.7539 24.3284 10.7007Z" />
    <path
      d="M6.83337 7.0415C6.66761 7.0415 6.50864 7.10735 6.39143 7.22456C6.27422 7.34177 6.20837 7.50074 6.20837 7.6665C6.20837 7.83226 6.27422 7.99124 6.39143 8.10845C6.50864 8.22566 6.66761 8.2915 6.83337 8.2915H8.31612C8.40594 8.2915 8.48767 8.3592 8.50492 8.45264C8.50541 8.45753 8.50595 8.46241 8.50655 8.46729L10.4532 17.8065C10.7458 19.1945 11.981 20.1958 13.3991 20.1958H21.267C21.4327 20.1958 21.5917 20.13 21.7089 20.0127C21.8261 19.8955 21.892 19.7366 21.892 19.5708C21.892 19.405 21.8261 19.2461 21.7089 19.1289C21.5917 19.0116 21.4327 18.9458 21.267 18.9458H13.3991C12.5678 18.9458 11.8493 18.3645 11.6771 17.5509V17.5493L9.73376 8.2264C9.60816 7.54606 9.012 7.0415 8.31612 7.0415H6.83337Z" />
  </symbol>
  <symbol id="icon-cart-02" viewBox="0 0 40 40">
    <path
      d="M 20,0 C 8.9373083,0 0,8.9373083 0,20 0,31.062692 8.9373083,40 20,40 31.062692,40 40,31.062692 40,20 40,8.9373083 31.062692,0 20,0 Z m 0,2 c 9.989287,0 18,8.010713 18,18 0,9.989287 -8.010713,18 -18,18 C 10.010713,38 2,29.989287 2,20 2,10.010713 10.010713,2 20,2 Z"
      id="rect4" />
    <path
      d="M16.3633 25.4434C15.169 25.4434 14.1855 26.4268 14.1855 27.6211C14.1855 28.8154 15.169 29.7988 16.3633 29.7988C17.5575 29.7988 18.543 28.8154 18.543 27.6211C18.543 26.4268 17.5576 25.4434 16.3633 25.4434ZM16.3633 26.9434C16.7469 26.9434 17.043 27.2375 17.043 27.6211C17.043 28.0048 16.747 28.2988 16.3633 28.2988C15.9796 28.2988 15.6855 28.0048 15.6855 27.6211C15.6855 27.2375 15.9797 26.9434 16.3633 26.9434Z" />
    <path
      d="M24.1719 25.4434C22.9776 25.4434 21.9922 26.4268 21.9922 27.6211C21.9922 28.8154 22.9777 29.7988 24.1719 29.7988C25.3661 29.7988 26.3496 28.8154 26.3496 27.6211C26.3496 26.4269 25.3662 25.4434 24.1719 25.4434ZM24.1719 26.9434C24.5556 26.9434 24.8496 27.2375 24.8496 27.6211C24.8496 28.0048 24.5556 28.2988 24.1719 28.2988C23.7883 28.2988 23.4922 28.0048 23.4922 27.6211C23.4922 27.2376 23.7883 26.9434 24.1719 26.9434Z" />
    <path
      d="M29.9941 13.6406L15.2617 13.6426C14.8475 13.6427 14.5117 13.9784 14.5117 14.3926C14.5117 14.8068 14.8475 15.1426 15.2617 15.1426L28.832 15.1406L27.6738 19.4141C27.4255 20.3336 26.5964 20.9746 25.6406 20.9746H16.7988C16.3846 20.9746 16.0488 21.3104 16.0488 21.7246C16.0488 22.1388 16.3846 22.4746 16.7988 22.4746H25.6406C27.2704 22.4746 28.6981 21.3727 29.1211 19.8066L30.5371 14.5859C30.6272 14.1453 30.4945 13.7044 29.9941 13.6406Z" />
    <path
      d="M9 9.25C8.80109 9.25 8.61032 9.32902 8.46967 9.46967C8.32902 9.61032 8.25 9.80109 8.25 10C8.25 10.1989 8.32902 10.3897 8.46967 10.5303C8.61032 10.671 8.80109 10.75 9 10.75H10.7793C10.8871 10.75 10.9852 10.8312 11.0059 10.9434C11.0064 10.9492 11.0071 10.9551 11.0078 10.9609L13.3438 22.168C13.6949 23.8336 15.1771 25.0352 16.8789 25.0352H26.3203C26.5192 25.0352 26.71 24.9561 26.8506 24.8155C26.9913 24.6748 27.0703 24.4841 27.0703 24.2852C27.0703 24.0862 26.9913 23.8955 26.8506 23.7548C26.71 23.6142 26.5192 23.5352 26.3203 23.5352H16.8789C15.8814 23.5352 15.0191 22.8376 14.8125 21.8613V21.8593L12.4805 10.6719C12.3297 9.85546 11.6144 9.25 10.7793 9.25H9Z" />
  </symbol>
  <symbol id="icon-calendar" viewBox="0 0 28 28">
    <path
      d="M20.9997 2.80021H26.5993C26.971 2.80021 27.327 2.9472 27.5895 3.21074C27.852 3.47428 28 3.82916 28 4.20084V26.5994C28 26.9711 27.853 27.327 27.5895 27.5895C27.3259 27.852 26.971 28 26.5993 28H1.39963C1.02794 28 0.671991 27.853 0.409495 27.5895C0.146998 27.3259 0 26.9711 0 26.5994V4.20084C0 3.82916 0.146998 3.47323 0.409495 3.21074C0.671991 2.94825 1.02794 2.80021 1.39963 2.80021H6.99921V0H9.79953V2.80021H18.1994V0H20.9997V2.80021ZM25.1997 14H2.80031V25.1998H25.1997V14ZM18.1994 5.60042H9.79953V8.40063H6.99921V5.60042H2.79927V11.1998H25.1986V5.60042H20.9987V8.40063H18.1984L18.1994 5.60042ZM5.59958 16.7992H8.39989V19.5994H5.59958V16.7992ZM12.5998 16.7992H15.4002V19.5994H12.5998V16.7992ZM19.5991 16.7992H22.3994V19.5994H19.5991V16.7992Z" />
  </symbol>
  <symbol id="icon-archive" viewBox="0 0 32 32">
    <path
      d="M26 2h-20l-6 6v21c0 0.552 0.448 1 1 1h30c0.552 0 1-0.448 1-1v-21l-6-6zM16 26l-10-8h6v-6h8v6h6l-10 8zM4.828 6l2-2h18.343l2 2h-22.343z">
    </path>
  </symbol>
  <symbol id="icon-unarchive" viewBox="0 0 32 32">
    <path
      d="M26 2h-20l-6 6v21c0 0.552 0.448 1 1 1h30c0.552 0 1-0.448 1-1v-21l-6-6zM20 20v6h-8v-6h-6l10-8 10 8h-6zM4.828 6l2-2h18.343l2 2h-22.343z">
    </path>
  </symbol>
  <symbol id="icon-add" viewBox="0 0 32 32">
    <path
      d="m 16.001942,1.5000013 c -1.581596,-0.00159 -2.908118,1.3249433 -2.906538,2.9065389 V 13.09413 h -8.6889232 -0.00261 c -1.5795034,-6.6e-5 -2.9039363,1.325702 -2.9038706,2.905204 -8.188e-4,1.580095 1.3239196,2.905269 2.9038706,2.905205 h 8.6915922 v 8.690257 c -8.2e-4,1.580097 1.323918,2.905269 2.903869,2.905204 1.580548,8.21e-4 2.906027,-1.324656 2.905205,-2.905204 v -0.0014 -8.688923 h 8.690257 c 1.580998,8.19e-4 2.906783,-1.325395 2.905205,-2.906538 -7.52e-4,-0.768812 -0.30899,-1.507811 -0.852745,-2.051161 -0.543351,-0.543754 -1.281016,-0.851979 -2.049791,-0.852746 h -0.0014 -8.691591 V 4.4025368 C 18.903773,3.633133 18.595033,2.8935517 18.050446,2.3500771 c -1.78e-4,-1.781e-4 1.79e-4,-0.00115 0,-0.00133 -0.543101,-0.5420872 -1.280937,-0.847972 -2.048455,-0.8487375 z" />
  </symbol>
  <symbol id="icon-delete" viewBox="0 0 32 32">
    <path
      d="M4 10v20c0 1.1 0.9 2 2 2h18c1.1 0 2-0.9 2-2v-20h-22zM10 28h-2v-14h2v14zM14 28h-2v-14h2v14zM18 28h-2v-14h2v14zM22 28h-2v-14h2v14z">
    </path>
    <path
      d="M26.5 4h-6.5v-2.5c0-0.825-0.675-1.5-1.5-1.5h-7c-0.825 0-1.5 0.675-1.5 1.5v2.5h-6.5c-0.825 0-1.5 0.675-1.5 1.5v2.5h26v-2.5c0-0.825-0.675-1.5-1.5-1.5zM18 4h-6v-1.975h6v1.975z">
    </path>
  </symbol>
  <symbol id="icon-edit" viewBox="0 0 32 32">
    <path
      d="M27 0c2.761 0 5 2.239 5 5 0 1.126-0.372 2.164-1 3l-2 2-7-7 2-2c0.836-0.628 1.874-1 3-1zM2 23l-2 9 9-2 18.5-18.5-7-7-18.5 18.5zM22.362 11.362l-14 14-1.724-1.724 14-14 1.724 1.724z">
    </path>
  </symbol>
  <symbol id="icon-moon" viewBox="0 0 32 32">
    <path
      d="M16.166 1.101c-8.21 0-14.899 6.689-14.899 14.899s6.689 14.899 14.899 14.899c7.142 0 13.13-5.062 14.568-11.783-1.022 0.462-2.208 0.791-3.451 0.927l-0.052 0.005c-0.003 0.008-0.007 0.015-0.009 0.023-0.021 0.002-0.041 0.006-0.061 0.008-0.198 0.020-0.398 0.035-0.599 0.045s-0.404 0.015-0.608 0.015c-0.204 0-0.406-0.005-0.608-0.015s-0.401-0.025-0.599-0.045c-0.198-0.020-0.395-0.045-0.59-0.075s-0.389-0.064-0.581-0.103c-0.192-0.039-0.382-0.083-0.571-0.131s-0.375-0.101-0.559-0.158c-0.185-0.057-0.367-0.119-0.548-0.185s-0.359-0.136-0.535-0.21c-0.176-0.074-0.35-0.153-0.522-0.235s-0.341-0.169-0.508-0.26c-0.167-0.090-0.331-0.185-0.493-0.283s-0.321-0.2-0.478-0.306c-0.157-0.106-0.31-0.215-0.461-0.328s-0.299-0.229-0.445-0.349c-0.145-0.12-0.288-0.243-0.427-0.37s-0.275-0.256-0.408-0.389c-0.133-0.133-0.263-0.269-0.389-0.408s-0.25-0.282-0.37-0.427c-0.12-0.145-0.236-0.294-0.349-0.445s-0.222-0.305-0.328-0.461c-0.106-0.157-0.208-0.316-0.306-0.478s-0.193-0.326-0.283-0.493c-0.090-0.167-0.177-0.336-0.26-0.508s-0.161-0.346-0.235-0.522c-0.074-0.176-0.144-0.355-0.21-0.535s-0.127-0.363-0.185-0.548c-0.057-0.185-0.11-0.371-0.158-0.559s-0.092-0.379-0.131-0.571c-0.039-0.192-0.073-0.386-0.103-0.581s-0.055-0.392-0.075-0.59c-0.020-0.198-0.035-0.398-0.045-0.599s-0.015-0.404-0.015-0.608c0-0.204 0.005-0.406 0.015-0.608s0.025-0.401 0.045-0.599c0.020-0.198 0.045-0.395 0.075-0.59s0.064-0.389 0.103-0.581c0.039-0.192 0.083-0.382 0.131-0.571s0.101-0.375 0.158-0.559c0.057-0.185 0.119-0.367 0.185-0.548 0.002-0.005 0.004-0.010 0.006-0.015 0.014-0.002 0.028-0.004 0.042-0.005 0.455-1.214 1.053-2.264 1.79-3.199l-0.019 0.025c-0.014-0-0.028-0.001-0.042-0.001 0-0 0-0 0-0-0.144-0.006-0.32-0.011-0.496-0.012l-0.006-0zM11.388 5.232c-0.010 0.045-0.022 0.090-0.031 0.135-0.050 0.242-0.094 0.486-0.131 0.733s-0.069 0.494-0.095 0.744c-0.025 0.25-0.045 0.502-0.058 0.755s-0.019 0.508-0.019 0.765c0 0.257 0.007 0.512 0.019 0.765s0.032 0.505 0.058 0.755c0.025 0.25 0.057 0.498 0.095 0.744s0.082 0.491 0.131 0.733c0.050 0.242 0.105 0.482 0.167 0.72s0.128 0.473 0.201 0.706c0.073 0.233 0.151 0.464 0.235 0.692s0.173 0.454 0.267 0.676c0.094 0.223 0.194 0.443 0.299 0.66s0.215 0.431 0.33 0.642c0.115 0.211 0.235 0.419 0.359 0.624s0.254 0.406 0.388 0.605c0.134 0.198 0.273 0.393 0.416 0.584s0.291 0.379 0.443 0.563c0.152 0.184 0.308 0.364 0.469 0.541s0.325 0.349 0.494 0.518c0.169 0.169 0.341 0.333 0.518 0.494s0.357 0.317 0.541 0.469c0.184 0.152 0.372 0.3 0.563 0.443s0.386 0.282 0.584 0.416c0.198 0.134 0.4 0.264 0.605 0.388s0.413 0.244 0.624 0.359c0.211 0.115 0.425 0.225 0.642 0.33s0.437 0.205 0.66 0.299c0.223 0.094 0.448 0.184 0.676 0.267s0.459 0.162 0.692 0.235c0.233 0.073 0.469 0.14 0.706 0.201s0.478 0.117 0.72 0.167c0.242 0.050 0.486 0.094 0.733 0.131s0.494 0.069 0.744 0.095c0.25 0.026 0.502 0.045 0.755 0.058 0.087 0.004 0.175 0.004 0.262 0.007-2.152 2.755-5.503 4.523-9.284 4.523-6.521 0-11.774-5.253-11.774-11.774 0-4.818 2.869-8.942 6.996-10.768z">
    </path>
    <path
      d="M20.928 3.999c-0.17 1.037-0.565 1.706-1.128 2.209s-1.324 0.839-2.235 1.065v1.213c0.911 0.226 1.672 0.562 2.235 1.065s0.957 1.172 1.128 2.209h1.234c0.17-1.037 0.565-1.706 1.128-2.209s1.324-0.839 2.235-1.065v-1.213c-0.911-0.226-1.672-0.562-2.235-1.065s-0.957-1.172-1.128-2.209zM21.544 6.002c0.249 0.44 0.556 0.82 0.911 1.137 0.331 0.296 0.698 0.539 1.091 0.74-0.392 0.201-0.759 0.443-1.091 0.74-0.355 0.317-0.662 0.697-0.911 1.137-0.249-0.44-0.556-0.82-0.911-1.137-0.331-0.296-0.698-0.539-1.091-0.74 0.392-0.201 0.759-0.444 1.091-0.74 0.355-0.317 0.662-0.697 0.911-1.137z">
    </path>
    <path
      d="M26.412 9.965c-0.095 0.575-0.314 0.947-0.626 1.226s-0.735 0.466-1.241 0.591v0.673c0.506 0.126 0.928 0.312 1.241 0.591s0.532 0.651 0.626 1.226h0.685c0.095-0.575 0.314-0.947 0.626-1.226s0.735-0.466 1.241-0.591v-0.673c-0.506-0.126-0.928-0.312-1.241-0.591s-0.532-0.651-0.626-1.226zM26.755 11.078c0.138 0.244 0.309 0.455 0.506 0.631 0.184 0.164 0.388 0.299 0.606 0.411-0.218 0.112-0.422 0.246-0.606 0.411-0.197 0.176-0.368 0.387-0.506 0.631-0.138-0.244-0.309-0.455-0.506-0.631-0.184-0.164-0.388-0.299-0.606-0.411 0.218-0.112 0.422-0.246 0.606-0.411 0.197-0.176 0.368-0.387 0.506-0.631z">
    </path>
  </symbol>
  <symbol id="icon-sun" viewBox="0 0 32 32">
    <path
      d="M16 26c1.105 0 2 0.895 2 2v2c0 1.105-0.895 2-2 2s-2-0.895-2-2v-2c0-1.105 0.895-2 2-2zM16 6c-1.105 0-2-0.895-2-2v-2c0-1.105 0.895-2 2-2s2 0.895 2 2v2c0 1.105-0.895 2-2 2zM30 14c1.105 0 2 0.895 2 2s-0.895 2-2 2h-2c-1.105 0-2-0.895-2-2s0.895-2 2-2h2zM6 16c0 1.105-0.895 2-2 2h-2c-1.105 0-2-0.895-2-2s0.895-2 2-2h2c1.105 0 2 0.895 2 2zM25.899 23.071l1.414 1.414c0.781 0.781 0.781 2.047 0 2.828s-2.047 0.781-2.828 0l-1.414-1.414c-0.781-0.781-0.781-2.047 0-2.828s2.047-0.781 2.828 0zM6.101 8.929l-1.414-1.414c-0.781-0.781-0.781-2.047 0-2.828s2.047-0.781 2.828 0l1.414 1.414c0.781 0.781 0.781 2.047 0 2.828s-2.047 0.781-2.828 0zM25.899 8.929c-0.781 0.781-2.047 0.781-2.828 0s-0.781-2.047 0-2.828l1.414-1.414c0.781-0.781 2.047-0.781 2.828 0s0.781 2.047 0 2.828l-1.414 1.414zM6.101 23.071c0.781-0.781 2.047-0.781 2.828 0s0.781 2.047 0 2.828l-1.414 1.414c-0.781 0.781-2.047 0.781-2.828 0s-0.781-2.047 0-2.828l1.414-1.414z">
    </path>
    <path
      d="M16 8c-4.418 0-8 3.582-8 8s3.582 8 8 8c4.418 0 8-3.582 8-8s-3.582-8-8-8zM16 21c-2.761 0-5-2.239-5-5s2.239-5 5-5 5 2.239 5 5-2.239 5-5 5z">
    </path>
  </symbol>
  <symbol id="icon-filter" viewBox="0 0 32 32">
    <path
      d="M 26.696983,5.0913379 17.684971,15.746484 c -0.200449,0.235902 -0.321809,0.544075 -0.321809,0.880884 v 9.438817 l -2.727193,-1.363597 v -8.07522 c 0.0014,-0.309537 -0.104997,-0.623164 -0.321809,-0.880884 L 5.3021481,5.0913379 Z M 29.635534,2.3641442 H 2.3635969 c -0.7527055,0 -1.36359694,0.6108913 -1.36359694,1.3635968 0,0.3368084 0.12136014,0.6449813 0.32180894,0.8808836 L 11.908775,17.126444 v 8.418847 c 0,0.530439 0.302718,0.991335 0.754069,1.219056 l 5.454387,2.727193 c 0.673617,0.336809 1.493139,0.06409 1.829947,-0.609527 0.09818,-0.199086 0.144542,-0.410443 0.143178,-0.609528 V 17.126444 L 30.677322,4.6086246 C 31.164126,4.0331867 31.091856,3.1727571 30.516418,2.6873166 30.258698,2.4691411 29.945071,2.3627806 29.635534,2.3641442 Z" />
  </symbol>
  <symbol id="icon-undo" viewBox="0 0 32 32">
    <path
      d="M23.808 32c3.554-6.439 4.153-16.26-9.808-15.932v7.932l-12-12 12-12v7.762c16.718-0.436 18.58 14.757 9.808 24.238z">
    </path>
  </symbol>
  <symbol id="icon-log-out" viewBox="0 0 32 32">
    <path d="M24 20v-4h-10v-4h10v-4l6 6zM22 18v8h-10v6l-12-6v-26h22v10h-2v-8h-16l8 4v18h8v-6z"></path>
  </symbol>
  <symbol id="icon-user" viewBox="0 0 32 32">
    <path
      d="M16 16c4.42 0 8-3.58 8-8s-3.58-8-8-8-8 3.58-8 8 3.58 8 8 8zm0 4c-5.34 0-16 2.68-16 8v2c0 1.1.9 2 2 2h28c1.1 0 2-.9 2-2v-2c0-5.32-10.66-8-16-8z" />
  </symbol>
  <symbol id="icon-at" viewBox="0 0 32 32">
    <path
      d="M 16,4.7999999 C 9.8144082,4.7999999 4.7999999,9.8144082 4.7999999,16 c 0,6.18562 5.0144083,11.2 11.2000001,11.2 1.68322,0 3.276,-0.37044 4.704699,-1.032781 0.701541,-0.325219 1.533841,-0.02015 1.859061,0.68138 0.32522,0.701401 0.02015,1.5337 -0.68138,1.858921 C 20.092199,29.53744 18.09818,30 16,30 8.2680092,30 1.9999999,23.73192 1.9999999,16 1.9999999,8.2680091 8.2680092,1.9999998 16,1.9999998 23.73192,1.9999998 30,8.2680091 30,16 l -2.81e-4,0.02659 c -0.05837,3.065859 -1.03474,5.13086 -2.474219,6.41242 -1.405461,1.25146 -3.070061,1.592499 -4.2308,1.592499 -1.6695,0 -3.13516,-0.866879 -3.9732,-2.175039 -2.90724,2.569 -7.097889,3.13362 -9.6856489,0.2583 C 6.9396757,19.119055 7.6913076,14.117135 10.567929,10.920879 13.351061,7.828475 18.41178,6.6344572 21.31734,10.212031 21.5671,9.5297412 22.30532,9.1460152 23.015259,9.3483432 c 0.74368,0.211918 1.174601,0.9864958 0.962781,1.7300918 -0.829081,2.90696 -1.80754,5.786621 -2.538621,8.718361 0.212941,0.82502 0.964041,1.434717 1.855281,1.434717 0.6706,0 1.60594,-0.204398 2.368939,-0.883678 C 26.39136,19.699914 27.15044,18.452374 27.2,15.986695 27.1928,9.8072362 22.18114,4.7999969 16,4.7999969 Z M 19.294339,17.2796 c 0.09744,-0.33614 0.35434,-1.23396 0.653101,-2.27934 0.327319,-1.1466 -0.09632,-2.247994 -0.99078,-3.241911 -1.286881,-1.429875 -4.04838,-1.474465 -6.307519,1.035637 -2.271093,2.523514 -2.354072,5.867694 -0.932064,7.447733 1.28688,1.429821 4.048423,1.474341 6.307463,-1.035719 0.522199,-0.5803 1.014021,-1.181741 1.269799,-1.9264 z" />
  </symbol>
  <symbol id="icon-pass" viewBox="0 0 32 32">
    <path
      d="M22 0c-5.523 0-10 4.477-10 10 0 0.626 0.058 1.238 0.168 1.832l-12.168 12.168v6c0 1.105 0.895 2 2 2h2v-2h4v-4h4v-4h4l2.595-2.595c1.063 0.385 2.209 0.595 3.405 0.595 5.523 0 10-4.477 10-10s-4.477-10-10-10zM24.996 10.004c-1.657 0-3-1.343-3-3s1.343-3 3-3 3 1.343 3 3-1.343 3-3 3z">
    </path>
  </symbol>
  <symbol id="icon-error" viewBox="0 0 32 32">
    <path
      d="M16 0c-8.837 0-16 7.163-16 16s7.163 16 16 16 16-7.163 16-16-7.163-16-16-16zM16 29c-7.18 0-13-5.82-13-13s5.82-13 13-13 13 5.82 13 13-5.82 13-13 13z">
    </path>
    <path d="M21 8l-5 5-5-5-3 3 5 5-5 5 3 3 5-5 5 5 3-3-5-5 5-5z"></path>
  </symbol>
  <symbol id="icon-success" viewBox="0 0 32 32">
    <path
      d="M16 0c-8.837 0-16 7.163-16 16s7.163 16 16 16 16-7.163 16-16-7.163-16-16-16zM16 29c-7.18 0-13-5.82-13-13s5.82-13 13-13 13 5.82 13 13-5.82 13-13 13z"
      id="path2" />
    <path d="M 23.380375,8.797546 13.4724,19 8.4723925,14 l -3,3 8.0000075,8 12.907975,-13.202454 z" id="path4" />
  </symbol>
  <symbol id="icon-warning" viewBox="0 0 32 32">
    <path
      d="M16 3c-3.472 0-6.737 1.352-9.192 3.808s-3.808 5.72-3.808 9.192c0 3.472 1.352 6.737 3.808 9.192s5.72 3.808 9.192 3.808c3.472 0 6.737-1.352 9.192-3.808s3.808-5.72 3.808-9.192c0-3.472-1.352-6.737-3.808-9.192s-5.72-3.808-9.192-3.808zM16 0v0c8.837 0 16 7.163 16 16s-7.163 16-16 16c-8.837 0-16-7.163-16-16s7.163-16 16-16zM14 22h4v4h-4zM14 6h4v12h-4z">
    </path>
  </symbol>
</svg>